<?xml version="1.0" encoding="UTF-8"?>
<!DOCTYPE svg PUBLIC "-//W3C//DTD SVG 1.1//EN" "http://www.w3.org/Graphics/SVG/1.1/DTD/svg11.dtd">
<!-- Creator: CorelDRAW 2020 (64-Bit) -->
<svg xmlns="http://www.w3.org/2000/svg" xml:space="preserve" width="900mm" height="600mm" version="1.1" style="shape-rendering:geometricPrecision; text-rendering:geometricPrecision; image-rendering:optimizeQuality; fill-rule:evenodd; clip-rule:evenodd"
viewBox="0 0 90000 60000"
 xmlns:xlink="http://www.w3.org/1999/xlink"
 xmlns:xodm="http://www.corel.com/coreldraw/odm/2003">
 <defs>
  <style type="text/css">
   <![CDATA[
    .str0 {stroke:red;stroke-width:10;stroke-miterlimit:22.9256}
    .str1 {stroke:red;stroke-width:10;stroke-linejoin:bevel;stroke-miterlimit:22.9256}
    .fil0 {fill:none}
   ]]>
  </style>
 </defs>
 <g id="Layer_x0020_1">
  <metadata id="CorelCorpID_0Corel-Layer"/>
  <g id="_1884986117120">
   <circle class="fil0 str0" cx="32124.37" cy="34202.68" r="1875"/>
   <circle class="fil0 str0" cx="33711.13" cy="35816.64" r="200"/>
   <circle class="fil0 str0" cx="30511.13" cy="32616.64" r="200"/>
   <circle class="fil0 str0" cx="33711.13" cy="32616.64" r="200"/>
   <circle class="fil0 str0" cx="30511.13" cy="35816.64" r="200"/>
  </g>
  <g id="_1884986116784">
   <circle class="fil0 str0" cx="32124.37" cy="27202.68" r="1875"/>
   <circle class="fil0 str0" cx="33711.13" cy="28816.64" r="200"/>
   <circle class="fil0 str0" cx="30511.13" cy="25616.64" r="200"/>
   <circle class="fil0 str0" cx="33711.13" cy="25616.64" r="200"/>
   <circle class="fil0 str0" cx="30511.13" cy="28816.64" r="200"/>
  </g>
  <rect class="fil0 str0" x="28674.83" y="38943.85" width="6900" height="5000"/>
  <rect class="fil0 str0" x="4321.12" y="47401.3" width="4700" height="2700"/>
  <circle class="fil0 str0" cx="4409.89" cy="24578.17" r="200"/>
  <line class="fil0 str1" x1="23039.89" y1="23578.17" x2="23039.89" y2= "25778.17" />
  <line class="fil0 str1" x1="23039.89" y1="25778.17" x2="22639.89" y2= "25778.17" />
  <line class="fil0 str1" x1="22639.89" y1="25778.17" x2="22639.89" y2= "28178.17" />
  <line class="fil0 str1" x1="22639.89" y1="28178.17" x2="23039.89" y2= "28178.17" />
  <line class="fil0 str1" x1="23039.89" y1="28178.17" x2="23039.89" y2= "30578.17" />
  <line class="fil0 str1" x1="23039.89" y1="30578.17" x2="22639.89" y2= "30578.17" />
  <line class="fil0 str1" x1="22639.89" y1="30578.17" x2="22639.89" y2= "32978.17" />
  <line class="fil0 str1" x1="22639.89" y1="32978.17" x2="23039.89" y2= "32978.17" />
  <line class="fil0 str1" x1="23039.89" y1="32978.17" x2="23039.89" y2= "35378.17" />
  <line class="fil0 str1" x1="23039.89" y1="35378.17" x2="22639.89" y2= "35378.17" />
  <line class="fil0 str1" x1="22639.89" y1="35378.17" x2="22639.89" y2= "37778.17" />
  <line class="fil0 str1" x1="22639.89" y1="37778.17" x2="23039.89" y2= "37778.17" />
  <line class="fil0 str1" x1="23039.89" y1="37778.17" x2="23039.89" y2= "40178.17" />
  <line class="fil0 str1" x1="23039.89" y1="40178.17" x2="22639.89" y2= "40178.17" />
  <line class="fil0 str1" x1="22639.89" y1="40178.17" x2="22639.89" y2= "42578.17" />
  <line class="fil0 str1" x1="22639.89" y1="42578.17" x2="23039.89" y2= "42578.17" />
  <line class="fil0 str1" x1="23039.89" y1="42578.17" x2="23039.89" y2= "44778.17" />
  <line class="fil0 str1" x1="23039.89" y1="44778.17" x2="26139.89" y2= "44778.17" />
  <line class="fil0 str1" x1="26139.89" y1="44778.17" x2="26139.89" y2= "45178.17" />
  <line class="fil0 str1" x1="26139.89" y1="45178.17" x2="28539.89" y2= "45178.17" />
  <line class="fil0 str1" x1="28539.89" y1="45178.17" x2="28539.89" y2= "44778.17" />
  <line class="fil0 str1" x1="28539.89" y1="44778.17" x2="30939.89" y2= "44778.17" />
  <line class="fil0 str1" x1="30939.89" y1="44778.17" x2="30939.89" y2= "45178.17" />
  <line class="fil0 str1" x1="30939.89" y1="45178.17" x2="33339.89" y2= "45178.17" />
  <line class="fil0 str1" x1="33339.89" y1="45178.17" x2="33339.89" y2= "44778.17" />
  <line class="fil0 str1" x1="33339.89" y1="44778.17" x2="35739.89" y2= "44778.17" />
  <line class="fil0 str1" x1="35739.89" y1="44778.17" x2="35739.89" y2= "45178.17" />
  <line class="fil0 str1" x1="35739.89" y1="45178.17" x2="38139.89" y2= "45178.17" />
  <line class="fil0 str1" x1="38139.89" y1="45178.17" x2="38139.89" y2= "44778.17" />
  <line class="fil0 str1" x1="38139.89" y1="44778.17" x2="40539.89" y2= "44778.17" />
  <line class="fil0 str1" x1="40539.89" y1="44778.17" x2="41239.89" y2= "44778.17" />
  <line class="fil0 str1" x1="41239.89" y1="44778.17" x2="41239.89" y2= "42578.17" />
  <line class="fil0 str1" x1="41239.89" y1="42578.17" x2="41639.89" y2= "42578.17" />
  <line class="fil0 str1" x1="41639.89" y1="42578.17" x2="41639.89" y2= "40178.17" />
  <line class="fil0 str1" x1="41639.89" y1="40178.17" x2="41239.89" y2= "40178.17" />
  <line class="fil0 str1" x1="41239.89" y1="40178.17" x2="41239.89" y2= "37778.17" />
  <line class="fil0 str1" x1="41239.89" y1="37778.17" x2="41639.89" y2= "37778.17" />
  <line class="fil0 str1" x1="41639.89" y1="37778.17" x2="41639.89" y2= "35378.17" />
  <line class="fil0 str1" x1="41639.89" y1="35378.17" x2="41239.89" y2= "35378.17" />
  <line class="fil0 str1" x1="41239.89" y1="35378.17" x2="41239.89" y2= "32978.17" />
  <line class="fil0 str1" x1="41239.89" y1="32978.17" x2="41639.89" y2= "32978.17" />
  <line class="fil0 str1" x1="41639.89" y1="32978.17" x2="41639.89" y2= "30578.17" />
  <line class="fil0 str1" x1="41639.89" y1="30578.17" x2="41239.89" y2= "30578.17" />
  <line class="fil0 str1" x1="41239.89" y1="30578.17" x2="41239.89" y2= "28178.17" />
  <line class="fil0 str1" x1="41239.89" y1="28178.17" x2="41639.89" y2= "28178.17" />
  <line class="fil0 str1" x1="41639.89" y1="28178.17" x2="41639.89" y2= "25778.17" />
  <line class="fil0 str1" x1="41639.89" y1="25778.17" x2="41239.89" y2= "25778.17" />
  <line class="fil0 str1" x1="41239.89" y1="25778.17" x2="41239.89" y2= "23578.17" />
  <line class="fil0 str1" x1="41239.89" y1="23578.17" x2="38139.89" y2= "23578.17" />
  <line class="fil0 str1" x1="38139.89" y1="23578.17" x2="38139.89" y2= "23178.17" />
  <line class="fil0 str1" x1="38139.89" y1="23178.17" x2="35739.89" y2= "23178.17" />
  <line class="fil0 str1" x1="35739.89" y1="23178.17" x2="35739.89" y2= "23578.17" />
  <line class="fil0 str1" x1="35739.89" y1="23578.17" x2="33339.89" y2= "23578.17" />
  <line class="fil0 str1" x1="33339.89" y1="23578.17" x2="33339.89" y2= "23178.17" />
  <line class="fil0 str1" x1="33339.89" y1="23178.17" x2="30939.89" y2= "23178.17" />
  <line class="fil0 str1" x1="30939.89" y1="23178.17" x2="30939.89" y2= "23578.17" />
  <line class="fil0 str1" x1="30939.89" y1="23578.17" x2="28539.89" y2= "23578.17" />
  <line class="fil0 str1" x1="28539.89" y1="23578.17" x2="28539.89" y2= "23178.17" />
  <line class="fil0 str1" x1="28539.89" y1="23178.17" x2="26139.89" y2= "23178.17" />
  <line class="fil0 str1" x1="26139.89" y1="23178.17" x2="26139.89" y2= "23578.17" />
  <line class="fil0 str1" x1="26139.89" y1="23578.17" x2="23739.89" y2= "23578.17" />
  <line class="fil0 str1" x1="23739.89" y1="23578.17" x2="23039.89" y2= "23578.17" />
  <rect class="fil0 str0" x="24874.37" y="26702.67" width="500" height="1000"/>
  <rect class="fil0 str0" x="24874.37" y="33702.67" width="500" height="1000"/>
  <line class="fil0 str1" x1="3409.89" y1="23578.17" x2="3409.89" y2= "25778.17" />
  <line class="fil0 str1" x1="3409.89" y1="25778.17" x2="3009.89" y2= "25778.17" />
  <line class="fil0 str1" x1="3009.89" y1="25778.17" x2="3009.89" y2= "28178.17" />
  <line class="fil0 str1" x1="3009.89" y1="28178.17" x2="3409.89" y2= "28178.17" />
  <line class="fil0 str1" x1="3409.89" y1="28178.17" x2="3409.89" y2= "30578.17" />
  <line class="fil0 str1" x1="3409.89" y1="30578.17" x2="3009.89" y2= "30578.17" />
  <line class="fil0 str1" x1="3009.89" y1="30578.17" x2="3009.89" y2= "32978.17" />
  <line class="fil0 str1" x1="3009.89" y1="32978.17" x2="3409.89" y2= "32978.17" />
  <line class="fil0 str1" x1="3409.89" y1="32978.17" x2="3409.89" y2= "35378.17" />
  <line class="fil0 str1" x1="3409.89" y1="35378.17" x2="3009.89" y2= "35378.17" />
  <line class="fil0 str1" x1="3009.89" y1="35378.17" x2="3009.89" y2= "37778.17" />
  <line class="fil0 str1" x1="3009.89" y1="37778.17" x2="3409.89" y2= "37778.17" />
  <line class="fil0 str1" x1="3409.89" y1="37778.17" x2="3409.89" y2= "40178.17" />
  <line class="fil0 str1" x1="3409.89" y1="40178.17" x2="3009.89" y2= "40178.17" />
  <line class="fil0 str1" x1="3009.89" y1="40178.17" x2="3009.89" y2= "42578.17" />
  <line class="fil0 str1" x1="3009.89" y1="42578.17" x2="3409.89" y2= "42578.17" />
  <line class="fil0 str1" x1="3409.89" y1="42578.17" x2="3409.89" y2= "44778.17" />
  <line class="fil0 str1" x1="3409.89" y1="44778.17" x2="6509.89" y2= "44778.17" />
  <line class="fil0 str1" x1="6509.89" y1="44778.17" x2="6509.89" y2= "45178.17" />
  <line class="fil0 str1" x1="6509.89" y1="45178.17" x2="8909.89" y2= "45178.17" />
  <line class="fil0 str1" x1="8909.89" y1="45178.17" x2="8909.89" y2= "44778.17" />
  <line class="fil0 str1" x1="8909.89" y1="44778.17" x2="11309.89" y2= "44778.17" />
  <line class="fil0 str1" x1="11309.89" y1="44778.17" x2="11309.89" y2= "45178.17" />
  <line class="fil0 str1" x1="11309.89" y1="45178.17" x2="13709.89" y2= "45178.17" />
  <line class="fil0 str1" x1="13709.89" y1="45178.17" x2="13709.89" y2= "44778.17" />
  <line class="fil0 str1" x1="13709.89" y1="44778.17" x2="16109.89" y2= "44778.17" />
  <line class="fil0 str1" x1="16109.89" y1="44778.17" x2="16109.89" y2= "45178.17" />
  <line class="fil0 str1" x1="16109.89" y1="45178.17" x2="18509.89" y2= "45178.17" />
  <line class="fil0 str1" x1="18509.89" y1="45178.17" x2="18509.89" y2= "44778.17" />
  <line class="fil0 str1" x1="18509.89" y1="44778.17" x2="20909.89" y2= "44778.17" />
  <line class="fil0 str1" x1="20909.89" y1="44778.17" x2="21609.89" y2= "44778.17" />
  <line class="fil0 str1" x1="21609.89" y1="44778.17" x2="21609.89" y2= "42578.17" />
  <line class="fil0 str1" x1="21609.89" y1="42578.17" x2="22009.89" y2= "42578.17" />
  <line class="fil0 str1" x1="22009.89" y1="42578.17" x2="22009.89" y2= "40178.17" />
  <line class="fil0 str1" x1="22009.89" y1="40178.17" x2="21609.89" y2= "40178.17" />
  <line class="fil0 str1" x1="21609.89" y1="40178.17" x2="21609.89" y2= "37778.17" />
  <line class="fil0 str1" x1="21609.89" y1="37778.17" x2="22009.89" y2= "37778.17" />
  <line class="fil0 str1" x1="22009.89" y1="37778.17" x2="22009.89" y2= "35378.17" />
  <line class="fil0 str1" x1="22009.89" y1="35378.17" x2="21609.89" y2= "35378.17" />
  <line class="fil0 str1" x1="21609.89" y1="35378.17" x2="21609.89" y2= "32978.17" />
  <line class="fil0 str1" x1="21609.89" y1="32978.17" x2="22009.89" y2= "32978.17" />
  <line class="fil0 str1" x1="22009.89" y1="32978.17" x2="22009.89" y2= "30578.17" />
  <line class="fil0 str1" x1="22009.89" y1="30578.17" x2="21609.89" y2= "30578.17" />
  <line class="fil0 str1" x1="21609.89" y1="30578.17" x2="21609.89" y2= "28178.17" />
  <line class="fil0 str1" x1="21609.89" y1="28178.17" x2="22009.89" y2= "28178.17" />
  <line class="fil0 str1" x1="22009.89" y1="28178.17" x2="22009.89" y2= "25778.17" />
  <line class="fil0 str1" x1="22009.89" y1="25778.17" x2="21609.89" y2= "25778.17" />
  <line class="fil0 str1" x1="21609.89" y1="25778.17" x2="21609.89" y2= "23578.17" />
  <line class="fil0 str1" x1="21609.89" y1="23578.17" x2="18509.89" y2= "23578.17" />
  <line class="fil0 str1" x1="18509.89" y1="23578.17" x2="18509.89" y2= "23178.17" />
  <line class="fil0 str1" x1="18509.89" y1="23178.17" x2="16109.89" y2= "23178.17" />
  <line class="fil0 str1" x1="16109.89" y1="23178.17" x2="16109.89" y2= "23578.17" />
  <line class="fil0 str1" x1="16109.89" y1="23578.17" x2="13709.89" y2= "23578.17" />
  <line class="fil0 str1" x1="13709.89" y1="23578.17" x2="13709.89" y2= "23178.17" />
  <line class="fil0 str1" x1="13709.89" y1="23178.17" x2="11309.89" y2= "23178.17" />
  <line class="fil0 str1" x1="11309.89" y1="23178.17" x2="11309.89" y2= "23578.17" />
  <line class="fil0 str1" x1="11309.89" y1="23578.17" x2="8909.89" y2= "23578.17" />
  <line class="fil0 str1" x1="8909.89" y1="23578.17" x2="8909.89" y2= "23178.17" />
  <line class="fil0 str1" x1="8909.89" y1="23178.17" x2="6509.89" y2= "23178.17" />
  <line class="fil0 str1" x1="6509.89" y1="23178.17" x2="6509.89" y2= "23578.17" />
  <line class="fil0 str1" x1="6509.89" y1="23578.17" x2="4109.89" y2= "23578.17" />
  <line class="fil0 str1" x1="4109.89" y1="23578.17" x2="3409.89" y2= "23578.17" />
  <circle class="fil0 str0" cx="20609.89" cy="24578.17" r="200"/>
  <circle class="fil0 str0" cx="4409.89" cy="43778.17" r="200"/>
  <circle class="fil0 str0" cx="20609.89" cy="43778.17" r="200"/>
  <g id="_1884984754832">
   <line class="fil0 str1" x1="2381.13" y1="51551.31" x2="2381.13" y2= "52851.31" />
   <line class="fil0 str1" x1="2381.13" y1="52851.31" x2="2781.13" y2= "52851.31" />
   <line class="fil0 str1" x1="2781.13" y1="52851.31" x2="2781.13" y2= "55251.31" />
   <line class="fil0 str1" x1="2781.13" y1="55251.31" x2="2381.13" y2= "55251.31" />
   <line class="fil0 str1" x1="2381.13" y1="55251.31" x2="2381.13" y2= "56551.31" />
   <line class="fil0 str1" x1="2381.13" y1="56551.31" x2="5881.13" y2= "56551.31" />
   <line class="fil0 str1" x1="5881.13" y1="56551.31" x2="5881.13" y2= "56151.31" />
   <line class="fil0 str1" x1="5881.13" y1="56151.31" x2="8281.13" y2= "56151.31" />
   <line class="fil0 str1" x1="8281.13" y1="56151.31" x2="8281.13" y2= "56551.31" />
   <line class="fil0 str1" x1="8281.13" y1="56551.31" x2="10681.13" y2= "56551.31" />
   <line class="fil0 str1" x1="10681.13" y1="56551.31" x2="10681.13" y2= "56151.31" />
   <line class="fil0 str1" x1="10681.13" y1="56151.31" x2="13081.13" y2= "56151.31" />
   <line class="fil0 str1" x1="13081.13" y1="56151.31" x2="13081.13" y2= "56551.31" />
   <line class="fil0 str1" x1="13081.13" y1="56551.31" x2="15481.13" y2= "56551.31" />
   <line class="fil0 str1" x1="15481.13" y1="56551.31" x2="15481.13" y2= "56151.31" />
   <line class="fil0 str1" x1="15481.13" y1="56151.31" x2="17881.13" y2= "56151.31" />
   <line class="fil0 str1" x1="17881.13" y1="56151.31" x2="17881.13" y2= "56551.31" />
   <line class="fil0 str1" x1="17881.13" y1="56551.31" x2="20281.13" y2= "56551.31" />
   <line class="fil0 str1" x1="20281.13" y1="56551.31" x2="21381.13" y2= "56551.31" />
   <line class="fil0 str1" x1="21381.13" y1="56551.31" x2="21381.13" y2= "55251.31" />
   <line class="fil0 str1" x1="21381.13" y1="55251.31" x2="20981.13" y2= "55251.31" />
   <line class="fil0 str1" x1="20981.13" y1="55251.31" x2="20981.13" y2= "52851.31" />
   <line class="fil0 str1" x1="20981.13" y1="52851.31" x2="21381.13" y2= "52851.31" />
   <line class="fil0 str1" x1="21381.13" y1="52851.31" x2="21381.13" y2= "51551.31" />
   <line class="fil0 str1" x1="21381.13" y1="51551.31" x2="17881.13" y2= "51551.31" />
   <line class="fil0 str1" x1="17881.13" y1="51551.31" x2="17881.13" y2= "51951.31" />
   <line class="fil0 str1" x1="17881.13" y1="51951.31" x2="15481.13" y2= "51951.31" />
   <line class="fil0 str1" x1="15481.13" y1="51951.31" x2="15481.13" y2= "51551.31" />
   <line class="fil0 str1" x1="15481.13" y1="51551.31" x2="13081.13" y2= "51551.31" />
   <line class="fil0 str1" x1="13081.13" y1="51551.31" x2="13081.13" y2= "51951.31" />
   <line class="fil0 str1" x1="13081.13" y1="51951.31" x2="10681.13" y2= "51951.31" />
   <line class="fil0 str1" x1="10681.13" y1="51951.31" x2="10681.13" y2= "51551.31" />
   <line class="fil0 str1" x1="10681.13" y1="51551.31" x2="8281.13" y2= "51551.31" />
   <line class="fil0 str1" x1="8281.13" y1="51551.31" x2="8281.13" y2= "51951.31" />
   <line class="fil0 str1" x1="8281.13" y1="51951.31" x2="5881.13" y2= "51951.31" />
   <line class="fil0 str1" x1="5881.13" y1="51951.31" x2="5881.13" y2= "51551.31" />
   <line class="fil0 str1" x1="5881.13" y1="51551.31" x2="3481.13" y2= "51551.31" />
   <line class="fil0 str1" x1="3481.13" y1="51551.31" x2="2381.13" y2= "51551.31" />
  </g>
  <g id="_1884984969600">
   <line class="fil0 str1" x1="22081.13" y1="51551.31" x2="22081.13" y2= "52851.31" />
   <line class="fil0 str1" x1="22081.13" y1="52851.31" x2="21681.13" y2= "52851.31" />
   <line class="fil0 str1" x1="21681.13" y1="52851.31" x2="21681.13" y2= "55251.31" />
   <line class="fil0 str1" x1="21681.13" y1="55251.31" x2="22081.13" y2= "55251.31" />
   <line class="fil0 str1" x1="22081.13" y1="55251.31" x2="22081.13" y2= "56551.31" />
   <line class="fil0 str1" x1="22081.13" y1="56551.31" x2="24281.13" y2= "56551.31" />
   <line class="fil0 str1" x1="24281.13" y1="56551.31" x2="24281.13" y2= "56151.31" />
   <line class="fil0 str1" x1="24281.13" y1="56151.31" x2="26681.13" y2= "56151.31" />
   <line class="fil0 str1" x1="26681.13" y1="56151.31" x2="26681.13" y2= "56551.31" />
   <line class="fil0 str1" x1="26681.13" y1="56551.31" x2="29081.13" y2= "56551.31" />
   <line class="fil0 str1" x1="29081.13" y1="56551.31" x2="29081.13" y2= "56151.31" />
   <line class="fil0 str1" x1="29081.13" y1="56151.31" x2="31481.13" y2= "56151.31" />
   <line class="fil0 str1" x1="31481.13" y1="56151.31" x2="31481.13" y2= "56551.31" />
   <line class="fil0 str1" x1="31481.13" y1="56551.31" x2="33881.13" y2= "56551.31" />
   <line class="fil0 str1" x1="33881.13" y1="56551.31" x2="33881.13" y2= "56151.31" />
   <line class="fil0 str1" x1="33881.13" y1="56151.31" x2="36281.13" y2= "56151.31" />
   <line class="fil0 str1" x1="36281.13" y1="56151.31" x2="36281.13" y2= "56551.31" />
   <line class="fil0 str1" x1="36281.13" y1="56551.31" x2="38681.13" y2= "56551.31" />
   <line class="fil0 str1" x1="38681.13" y1="56551.31" x2="38681.13" y2= "56151.31" />
   <line class="fil0 str1" x1="38681.13" y1="56151.31" x2="41081.13" y2= "56151.31" />
   <line class="fil0 str1" x1="41081.13" y1="56151.31" x2="41081.13" y2= "56551.31" />
   <line class="fil0 str1" x1="41081.13" y1="56551.31" x2="43281.13" y2= "56551.31" />
   <line class="fil0 str1" x1="43281.13" y1="56551.31" x2="43281.13" y2= "55251.31" />
   <line class="fil0 str1" x1="43281.13" y1="55251.31" x2="43681.13" y2= "55251.31" />
   <line class="fil0 str1" x1="43681.13" y1="55251.31" x2="43681.13" y2= "52851.31" />
   <line class="fil0 str1" x1="43681.13" y1="52851.31" x2="43281.13" y2= "52851.31" />
   <line class="fil0 str1" x1="43281.13" y1="52851.31" x2="43281.13" y2= "51551.31" />
   <line class="fil0 str1" x1="43281.13" y1="51551.31" x2="41081.13" y2= "51551.31" />
   <line class="fil0 str1" x1="41081.13" y1="51551.31" x2="41081.13" y2= "51951.31" />
   <line class="fil0 str1" x1="41081.13" y1="51951.31" x2="38681.13" y2= "51951.31" />
   <line class="fil0 str1" x1="38681.13" y1="51951.31" x2="38681.13" y2= "51551.31" />
   <line class="fil0 str1" x1="38681.13" y1="51551.31" x2="36281.13" y2= "51551.31" />
   <line class="fil0 str1" x1="36281.13" y1="51551.31" x2="36281.13" y2= "51951.31" />
   <line class="fil0 str1" x1="36281.13" y1="51951.31" x2="33881.13" y2= "51951.31" />
   <line class="fil0 str1" x1="33881.13" y1="51951.31" x2="33881.13" y2= "51551.31" />
   <line class="fil0 str1" x1="33881.13" y1="51551.31" x2="31481.13" y2= "51551.31" />
   <line class="fil0 str1" x1="31481.13" y1="51551.31" x2="31481.13" y2= "51951.31" />
   <line class="fil0 str1" x1="31481.13" y1="51951.31" x2="29081.13" y2= "51951.31" />
   <line class="fil0 str1" x1="29081.13" y1="51951.31" x2="29081.13" y2= "51551.31" />
   <line class="fil0 str1" x1="29081.13" y1="51551.31" x2="26681.13" y2= "51551.31" />
   <line class="fil0 str1" x1="26681.13" y1="51551.31" x2="26681.13" y2= "51951.31" />
   <line class="fil0 str1" x1="26681.13" y1="51951.31" x2="24281.13" y2= "51951.31" />
   <line class="fil0 str1" x1="24281.13" y1="51951.31" x2="24281.13" y2= "51551.31" />
   <line class="fil0 str1" x1="24281.13" y1="51551.31" x2="22081.13" y2= "51551.31" />
  </g>
  <g id="_1884984969456">
   <line class="fil0 str1" x1="2381.13" y1="46251.31" x2="2381.13" y2= "47551.31" />
   <line class="fil0 str1" x1="2381.13" y1="47551.31" x2="2781.13" y2= "47551.31" />
   <line class="fil0 str1" x1="2781.13" y1="47551.31" x2="2781.13" y2= "49951.31" />
   <line class="fil0 str1" x1="2781.13" y1="49951.31" x2="2381.13" y2= "49951.31" />
   <line class="fil0 str1" x1="2381.13" y1="49951.31" x2="2381.13" y2= "51251.31" />
   <line class="fil0 str1" x1="2381.13" y1="51251.31" x2="5881.13" y2= "51251.31" />
   <line class="fil0 str1" x1="5881.13" y1="51251.31" x2="5881.13" y2= "50851.31" />
   <line class="fil0 str1" x1="5881.13" y1="50851.31" x2="8281.13" y2= "50851.31" />
   <line class="fil0 str1" x1="8281.13" y1="50851.31" x2="8281.13" y2= "51251.31" />
   <line class="fil0 str1" x1="8281.13" y1="51251.31" x2="10681.13" y2= "51251.31" />
   <line class="fil0 str1" x1="10681.13" y1="51251.31" x2="10681.13" y2= "50851.31" />
   <line class="fil0 str1" x1="10681.13" y1="50851.31" x2="13081.13" y2= "50851.31" />
   <line class="fil0 str1" x1="13081.13" y1="50851.31" x2="13081.13" y2= "51251.31" />
   <line class="fil0 str1" x1="13081.13" y1="51251.31" x2="15481.13" y2= "51251.31" />
   <line class="fil0 str1" x1="15481.13" y1="51251.31" x2="15481.13" y2= "50851.31" />
   <line class="fil0 str1" x1="15481.13" y1="50851.31" x2="17881.13" y2= "50851.31" />
   <line class="fil0 str1" x1="17881.13" y1="50851.31" x2="17881.13" y2= "51251.31" />
   <line class="fil0 str1" x1="17881.13" y1="51251.31" x2="20281.13" y2= "51251.31" />
   <line class="fil0 str1" x1="20281.13" y1="51251.31" x2="21381.13" y2= "51251.31" />
   <line class="fil0 str1" x1="21381.13" y1="51251.31" x2="21381.13" y2= "49951.31" />
   <line class="fil0 str1" x1="21381.13" y1="49951.31" x2="20981.13" y2= "49951.31" />
   <line class="fil0 str1" x1="20981.13" y1="49951.31" x2="20981.13" y2= "47551.31" />
   <line class="fil0 str1" x1="20981.13" y1="47551.31" x2="21381.13" y2= "47551.31" />
   <line class="fil0 str1" x1="21381.13" y1="47551.31" x2="21381.13" y2= "46251.31" />
   <line class="fil0 str1" x1="21381.13" y1="46251.31" x2="17881.13" y2= "46251.31" />
   <line class="fil0 str1" x1="17881.13" y1="46251.31" x2="17881.13" y2= "46651.31" />
   <line class="fil0 str1" x1="17881.13" y1="46651.31" x2="15481.13" y2= "46651.31" />
   <line class="fil0 str1" x1="15481.13" y1="46651.31" x2="15481.13" y2= "46251.31" />
   <line class="fil0 str1" x1="15481.13" y1="46251.31" x2="13081.13" y2= "46251.31" />
   <line class="fil0 str1" x1="13081.13" y1="46251.31" x2="13081.13" y2= "46651.31" />
   <line class="fil0 str1" x1="13081.13" y1="46651.31" x2="10681.13" y2= "46651.31" />
   <line class="fil0 str1" x1="10681.13" y1="46651.31" x2="10681.13" y2= "46251.31" />
   <line class="fil0 str1" x1="10681.13" y1="46251.31" x2="8281.13" y2= "46251.31" />
   <line class="fil0 str1" x1="8281.13" y1="46251.31" x2="8281.13" y2= "46651.31" />
   <line class="fil0 str1" x1="8281.13" y1="46651.31" x2="5881.13" y2= "46651.31" />
   <line class="fil0 str1" x1="5881.13" y1="46651.31" x2="5881.13" y2= "46251.31" />
   <line class="fil0 str1" x1="5881.13" y1="46251.31" x2="3481.13" y2= "46251.31" />
   <line class="fil0 str1" x1="3481.13" y1="46251.31" x2="2381.13" y2= "46251.31" />
  </g>
  <g id="_1884983078336">
   <line class="fil0 str1" x1="22081.13" y1="46251.31" x2="22081.13" y2= "47551.31" />
   <line class="fil0 str1" x1="22081.13" y1="47551.31" x2="21681.13" y2= "47551.31" />
   <line class="fil0 str1" x1="21681.13" y1="47551.31" x2="21681.13" y2= "49951.31" />
   <line class="fil0 str1" x1="21681.13" y1="49951.31" x2="22081.13" y2= "49951.31" />
   <line class="fil0 str1" x1="22081.13" y1="49951.31" x2="22081.13" y2= "51251.31" />
   <line class="fil0 str1" x1="22081.13" y1="51251.31" x2="24281.13" y2= "51251.31" />
   <line class="fil0 str1" x1="24281.13" y1="51251.31" x2="24281.13" y2= "50851.31" />
   <line class="fil0 str1" x1="24281.13" y1="50851.31" x2="26681.13" y2= "50851.31" />
   <line class="fil0 str1" x1="26681.13" y1="50851.31" x2="26681.13" y2= "51251.31" />
   <line class="fil0 str1" x1="26681.13" y1="51251.31" x2="29081.13" y2= "51251.31" />
   <line class="fil0 str1" x1="29081.13" y1="51251.31" x2="29081.13" y2= "50851.31" />
   <line class="fil0 str1" x1="29081.13" y1="50851.31" x2="31481.13" y2= "50851.31" />
   <line class="fil0 str1" x1="31481.13" y1="50851.31" x2="31481.13" y2= "51251.31" />
   <line class="fil0 str1" x1="31481.13" y1="51251.31" x2="33881.13" y2= "51251.31" />
   <line class="fil0 str1" x1="33881.13" y1="51251.31" x2="33881.13" y2= "50851.31" />
   <line class="fil0 str1" x1="33881.13" y1="50851.31" x2="36281.13" y2= "50851.31" />
   <line class="fil0 str1" x1="36281.13" y1="50851.31" x2="36281.13" y2= "51251.31" />
   <line class="fil0 str1" x1="36281.13" y1="51251.31" x2="38681.13" y2= "51251.31" />
   <line class="fil0 str1" x1="38681.13" y1="51251.31" x2="38681.13" y2= "50851.31" />
   <line class="fil0 str1" x1="38681.13" y1="50851.31" x2="41081.13" y2= "50851.31" />
   <line class="fil0 str1" x1="41081.13" y1="50851.31" x2="41081.13" y2= "51251.31" />
   <line class="fil0 str1" x1="41081.13" y1="51251.31" x2="43281.13" y2= "51251.31" />
   <line class="fil0 str1" x1="43281.13" y1="51251.31" x2="43281.13" y2= "49951.31" />
   <line class="fil0 str1" x1="43281.13" y1="49951.31" x2="43681.13" y2= "49951.31" />
   <line class="fil0 str1" x1="43681.13" y1="49951.31" x2="43681.13" y2= "47551.31" />
   <line class="fil0 str1" x1="43681.13" y1="47551.31" x2="43281.13" y2= "47551.31" />
   <line class="fil0 str1" x1="43281.13" y1="47551.31" x2="43281.13" y2= "46251.31" />
   <line class="fil0 str1" x1="43281.13" y1="46251.31" x2="41081.13" y2= "46251.31" />
   <line class="fil0 str1" x1="41081.13" y1="46251.31" x2="41081.13" y2= "46651.31" />
   <line class="fil0 str1" x1="41081.13" y1="46651.31" x2="38681.13" y2= "46651.31" />
   <line class="fil0 str1" x1="38681.13" y1="46651.31" x2="38681.13" y2= "46251.31" />
   <line class="fil0 str1" x1="38681.13" y1="46251.31" x2="36281.13" y2= "46251.31" />
   <line class="fil0 str1" x1="36281.13" y1="46251.31" x2="36281.13" y2= "46651.31" />
   <line class="fil0 str1" x1="36281.13" y1="46651.31" x2="33881.13" y2= "46651.31" />
   <line class="fil0 str1" x1="33881.13" y1="46651.31" x2="33881.13" y2= "46251.31" />
   <line class="fil0 str1" x1="33881.13" y1="46251.31" x2="31481.13" y2= "46251.31" />
   <line class="fil0 str1" x1="31481.13" y1="46251.31" x2="31481.13" y2= "46651.31" />
   <line class="fil0 str1" x1="31481.13" y1="46651.31" x2="29081.13" y2= "46651.31" />
   <line class="fil0 str1" x1="29081.13" y1="46651.31" x2="29081.13" y2= "46251.31" />
   <line class="fil0 str1" x1="29081.13" y1="46251.31" x2="26681.13" y2= "46251.31" />
   <line class="fil0 str1" x1="26681.13" y1="46251.31" x2="26681.13" y2= "46651.31" />
   <line class="fil0 str1" x1="26681.13" y1="46651.31" x2="24281.13" y2= "46651.31" />
   <line class="fil0 str1" x1="24281.13" y1="46651.31" x2="24281.13" y2= "46251.31" />
   <line class="fil0 str1" x1="24281.13" y1="46251.31" x2="22081.13" y2= "46251.31" />
  </g>
  <circle class="fil0 str0" cx="38904.62" cy="42913.43" r="500"/>
  <rect class="fil0 str0" x="17073.58" y="47876.53" width="2300" height="1750"/>
 </g>
</svg>
